<svg version="1.1" id="Layer_1" xmlns="http://www.w3.org/2000/svg" xmlns:xlink="http://www.w3.org/1999/xlink" x="0px" y="0px"
	 width="100%" viewBox="0 0 360 198" enable-background="new 0 0 360 198" xml:space="preserve">
<path fill="#FCFCFC" opacity="1.000000" stroke="none" 
	d="
M214.000000,199.000000 
	C142.666672,199.000000 71.833351,199.000000 1.000019,199.000000 
	C1.000013,133.000015 1.000013,67.000031 1.000006,1.000037 
	C120.999969,1.000025 240.999939,1.000025 360.999939,1.000012 
	C360.999939,66.999962 360.999939,132.999924 360.999969,198.999939 
	C312.166656,199.000000 263.333344,199.000000 214.000000,199.000000 
M106.163757,41.405754 
	C106.453468,41.256096 106.717125,41.069607 107.606873,40.691357 
	C108.574203,40.073418 109.541527,39.455482 111.115280,38.477180 
	C114.374512,34.460339 111.661812,28.147434 116.386749,24.645403 
	C116.527336,24.541201 116.019501,23.562136 115.904915,23.243671 
	C108.172821,23.243671 100.777786,23.243671 92.059875,23.243671 
	C93.803719,25.966066 95.585732,27.631208 95.941055,29.559269 
	C96.502098,32.603733 96.104836,35.824635 96.114792,38.970852 
	C96.134048,45.058578 96.315750,45.172104 102.488533,42.996834 
	C103.564209,42.528770 104.639877,42.060707 106.163757,41.405754 
M182.241119,52.783543 
	C179.641953,54.288364 177.042801,55.793190 174.465378,57.285431 
	C175.276443,57.552643 176.023071,57.798622 176.569199,58.960541 
	C182.275620,59.500660 187.982040,60.040779 193.910217,60.601883 
	C193.910217,56.172218 193.910217,52.737930 193.910217,48.154652 
	C190.877960,49.599400 188.405487,50.777435 185.375183,51.685020 
	C184.580811,52.029598 183.786438,52.374172 182.241119,52.783543 
M87.155525,51.071423 
	C84.765327,53.378254 82.375130,55.685089 79.380623,58.450203 
	C79.840439,58.961239 80.291595,59.907330 80.761406,59.916683 
	C86.046989,60.021973 91.335449,59.983307 96.770203,59.983307 
	C96.770203,56.054913 96.770203,52.517151 96.770203,48.986645 
	C94.987053,48.986645 93.491745,48.986645 91.374023,48.609600 
	C90.188217,49.379108 89.002419,50.148617 87.155525,51.071423 
M63.065048,183.194809 
	C61.626076,182.145813 60.086937,180.161682 58.775379,180.302170 
	C57.371307,180.452576 55.337990,182.451218 55.072433,183.914200 
	C54.504154,187.045059 54.898365,190.350632 54.898365,193.584641 
	C55.450283,193.710068 56.002201,193.835495 56.554119,193.960922 
	C57.323891,191.916412 58.093666,189.871902 59.572426,188.255356 
	C59.685307,189.063263 59.632343,189.944229 59.948708,190.662521 
	C60.464027,191.832428 61.220619,192.896072 61.875389,194.004562 
	C62.545105,192.903625 63.745407,191.815735 63.772854,190.699005 
	C63.828094,188.451797 63.244305,186.188889 63.065048,183.194809 
M315.565460,188.291367 
	C316.650360,190.115891 317.355591,192.528488 318.952698,193.559647 
	C320.030090,194.255219 322.365723,193.001968 324.138489,192.620499 
	C324.015656,192.119171 323.892822,191.617859 323.769958,191.116547 
	C322.240997,191.187210 320.712036,191.257874 319.183075,191.328537 
	C319.158875,191.022491 319.134644,190.716446 319.110413,190.410400 
	C320.896667,190.173691 322.682922,189.936996 324.532776,189.691864 
	C322.548431,183.859451 320.275146,183.609756 314.704346,187.486969 
	C312.129822,181.754684 312.026428,181.729034 308.734985,185.608871 
	C307.273102,184.758911 305.872375,183.944519 304.471680,183.130112 
	C303.941986,184.294724 302.910889,185.493118 302.986603,186.616928 
	C303.146149,188.983047 303.885956,191.310043 304.387634,193.653107 
	C304.752747,193.753448 305.117828,193.853806 305.482941,193.954147 
	C306.380432,191.697769 307.277924,189.441391 308.636597,186.025574 
	C309.794434,189.561157 310.510223,191.746918 311.494781,194.753326 
	C312.999847,191.686386 313.845215,189.963730 315.565460,188.291367 
M250.639603,184.961777 
	C251.076935,187.593323 251.514267,190.224884 252.028961,193.321854 
	C252.792450,193.558746 253.697952,192.300217 256.556732,185.495758 
	C254.234360,185.356659 251.920609,185.218079 248.970367,185.275360 
	C247.700699,186.369629 246.431015,187.463882 245.176727,188.544891 
	C244.459610,187.603867 243.531342,186.385757 242.331863,184.811752 
	C241.145615,186.482712 240.316269,187.650940 239.734222,188.470810 
	C238.392822,187.325821 237.057693,186.186172 235.722565,185.046539 
	C235.354034,185.412643 234.985489,185.778763 234.616959,186.144867 
	C236.050659,188.749893 237.484344,191.354904 239.234390,194.534744 
	C240.697998,192.575821 241.597534,191.371857 242.478195,190.193161 
	C243.383743,191.471619 244.203964,192.629608 246.059296,195.248978 
	C247.477875,191.028275 248.486389,188.027618 250.639603,184.961777 
M290.056183,184.221603 
	C288.644226,183.241287 287.059540,181.278442 285.857025,181.489792 
	C283.515594,181.901367 280.172241,183.049591 279.486511,184.780975 
	C278.667694,186.848221 279.374573,190.773453 280.950012,192.176834 
	C282.475006,193.535278 286.194855,193.435898 288.480072,192.634659 
	C290.518616,191.919937 292.296967,189.464172 290.019989,186.160751 
	C290.005707,185.756775 289.991425,185.352783 290.056183,184.221603 
M214.125504,191.554062 
	C216.916840,192.478043 219.708176,193.402023 222.799011,194.425156 
	C222.799011,188.844772 222.799011,184.650742 222.799011,180.456726 
	C222.343399,180.325211 221.887802,180.193710 221.432190,180.062210 
	C220.795197,181.711227 220.158188,183.360260 219.521179,185.009277 
	C219.357529,184.751785 219.193878,184.494293 219.030228,184.236801 
	C217.370667,185.569153 215.711105,186.901489 213.090500,188.453674 
	C209.574203,182.458084 204.029007,186.676331 199.295135,185.045731 
	C199.295135,188.281082 199.295135,190.802063 199.295135,193.440796 
	C201.832047,193.440796 204.062134,193.440796 206.224838,193.440796 
	C206.725266,191.345978 207.158127,189.533981 207.590988,187.721970 
	C207.943726,187.785065 208.296463,187.848160 208.649185,187.911255 
	C209.135300,189.904190 209.621399,191.897125 210.214050,194.326889 
	C211.968994,192.707611 213.015656,191.741867 214.125504,191.554062 
M269.240997,49.025047 
	C267.784210,49.230934 266.327423,49.436821 265.036804,49.619225 
	C265.036804,53.042889 265.036804,56.429790 265.036804,59.760742 
	C270.977783,59.760742 276.615784,59.760742 282.217224,59.760742 
	C279.748108,56.856239 277.417419,54.114597 274.644562,50.902306 
	C273.100342,50.254566 271.556091,49.606827 269.240997,49.025047 
M40.787975,79.327080 
	C39.420956,74.692482 36.131775,71.508545 31.591993,71.267258 
	C22.040283,70.759590 12.442806,71.112991 2.794675,71.112991 
	C2.794675,73.551559 2.794675,75.753036 2.794675,77.884933 
	C4.791170,78.211288 6.365777,78.468681 7.774992,78.699043 
	C7.774992,88.790527 7.774992,98.529137 7.774992,108.237732 
	C5.867217,108.584084 4.291370,108.870171 2.689105,109.161049 
	C2.689105,111.535309 2.689105,113.622589 2.689105,115.897110 
	C10.000133,115.897110 17.038389,115.897110 24.063843,115.897110 
	C24.063843,113.411415 24.063843,111.297318 24.063843,109.106300 
	C22.314247,108.735687 20.772581,108.409119 19.390499,108.116356 
	C19.390499,104.032387 19.390499,100.269073 19.390499,96.505760 
	C19.828033,96.136543 20.265570,95.767326 20.703104,95.398117 
	C22.269011,96.767181 24.339109,97.852165 25.301962,99.561028 
	C27.743992,103.895088 29.871859,108.434029 31.763163,113.039726 
	C32.837105,115.654991 34.361115,116.365685 37.046722,116.315170 
	C45.527077,116.155640 54.012363,116.258186 62.495739,116.259140 
	C65.249146,116.259453 68.002548,116.259193 70.596558,116.259193 
	C70.596558,113.293495 70.596558,111.080315 70.596558,108.906845 
	C68.452782,108.688423 66.685127,108.508331 64.751450,108.311317 
	C64.751450,98.267052 64.751450,88.532524 64.751450,78.566437 
	C66.921150,78.361107 68.813477,78.182030 70.632507,78.009888 
	C70.632507,75.410851 70.632507,73.169197 70.632507,70.995331 
	C62.713776,70.995331 55.137501,70.995331 47.523369,70.995331 
	C47.523369,73.551270 47.523369,75.758003 47.523369,77.981476 
	C49.651505,78.224960 51.413429,78.426552 53.309486,78.643486 
	C53.309486,88.676979 53.309486,98.401390 53.309486,108.067886 
	C41.420162,110.088821 34.507065,104.624680 35.615276,93.827240 
	C36.197910,93.261909 36.780544,92.696579 37.973614,91.804245 
	C38.933659,88.198135 39.893703,84.592026 40.948807,80.494911 
	C40.885777,80.340576 40.822750,80.186249 40.787975,79.327080 
M117.707695,90.045494 
	C116.490715,80.383339 111.934662,72.733093 101.902626,71.464684 
	C92.492065,70.274857 82.812843,71.209854 73.174225,71.209854 
	C73.174225,73.531158 73.174225,75.775024 73.174225,78.013000 
	C75.231789,78.235329 76.998695,78.426247 78.883110,78.629860 
	C78.883110,88.631187 78.883110,98.370903 78.883110,108.346954 
	C76.908691,108.542023 75.142677,108.716499 73.279442,108.900589 
	C73.279442,111.378860 73.279442,113.742569 73.279442,116.239380 
	C81.477837,116.239380 89.292480,116.419617 97.095871,116.199951 
	C111.137451,115.804680 118.347313,106.879837 117.707695,90.045494 
M277.653381,111.934959 
	C278.919037,112.729721 280.114227,113.678665 281.461700,114.294342 
	C290.499329,118.423691 299.418976,118.233459 307.406708,112.133972 
	C315.573090,105.898041 317.262482,97.067169 315.299347,87.425041 
	C313.414032,78.164917 307.585083,72.516090 298.463806,70.374702 
	C287.765564,67.863113 276.952423,72.399544 272.200989,81.198013 
	C266.920776,90.975639 268.912720,103.310173 277.653381,111.934959 
M150.387299,116.163765 
	C161.402603,113.170235 167.035370,105.159065 166.212692,93.483765 
	C159.861435,93.483765 153.504257,93.483765 147.188049,93.483765 
	C147.188049,96.129715 147.188049,98.400612 147.188049,100.853409 
	C149.520264,100.962341 151.608429,101.059868 154.078308,101.175232 
	C152.831207,105.616592 150.193069,107.980499 145.981491,108.440781 
	C141.303085,108.952080 137.346924,107.431503 134.907578,103.278687 
	C131.597748,97.643867 131.241425,91.606071 133.498199,85.511200 
	C135.062775,81.285744 138.191284,78.678513 142.713669,78.090958 
	C147.422867,77.479126 151.707993,79.047394 153.796753,83.185097 
	C156.047882,87.644409 159.082367,87.110939 162.699188,86.559891 
	C162.699188,81.107918 162.699188,76.016060 162.699188,70.114624 
	C159.792343,70.815239 157.351791,71.403465 153.571014,72.314720 
	C139.465927,64.275291 121.291008,73.449440 120.406021,92.286880 
	C119.618889,109.041206 131.971420,119.329735 150.387299,116.163765 
M167.954483,73.479836 
	C167.954483,74.948914 167.954483,76.417999 167.954483,77.953110 
	C169.789597,78.205124 171.209702,78.400139 172.762756,78.613419 
	C172.762756,88.621872 172.762756,98.370834 172.762756,108.356964 
	C171.146637,108.559418 169.725174,108.737488 168.244125,108.923019 
	C168.244125,111.406380 168.244125,113.649551 168.244125,115.890404 
	C180.577637,115.890404 192.617310,115.890404 204.678497,115.890404 
	C204.678497,111.087433 204.678497,106.663086 204.678497,102.175201 
	C202.002502,102.175201 199.600296,102.175201 197.151001,102.175201 
	C196.963852,104.398849 196.802124,106.320274 196.638550,108.263779 
	C192.262314,108.263779 188.217453,108.263779 184.183197,108.263779 
	C184.183197,104.270805 184.183197,100.662270 184.183197,96.607407 
	C187.531525,96.607407 190.632141,96.607407 193.999008,96.607407 
	C193.999008,93.914276 193.999008,91.672112 193.999008,89.142326 
	C190.650604,88.990685 187.411484,88.843994 184.280258,88.702194 
	C184.280258,85.052376 184.280258,81.819695 184.280258,78.536140 
	C188.574387,78.536140 192.503418,78.536140 196.676437,78.536140 
	C196.833466,80.704697 196.972855,82.629562 197.129059,84.786575 
	C199.704208,84.786575 202.102966,84.786575 204.587708,84.786575 
	C204.587708,79.996284 204.587708,75.450012 204.587708,70.660553 
	C193.076920,70.660553 181.922119,70.615860 170.769257,70.741409 
	C169.829193,70.751991 168.901993,71.903976 167.954483,73.479836 
M357.656006,77.098946 
	C355.155670,75.292244 352.798767,72.208992 350.129089,71.908997 
	C340.666016,70.845596 331.096191,70.732628 321.466797,70.254555 
	C321.466797,73.581284 321.466797,75.689011 321.466797,77.881149 
	C323.242920,78.207611 324.810974,78.495827 326.298920,78.769318 
	C326.298920,88.823524 326.298920,98.549194 326.298920,108.263435 
	C324.491516,108.558502 323.054565,108.793098 321.575500,109.034561 
	C321.575500,111.474510 321.575500,113.707397 321.575500,115.924339 
	C328.998260,115.924339 336.069672,115.924339 342.981445,115.924339 
	C342.981445,113.337784 342.981445,111.116058 342.981445,108.972710 
	C341.013763,108.654694 339.450714,108.402069 337.985809,108.165314 
	C337.985809,105.200417 337.985809,102.631310 337.985809,100.109558 
	C357.555054,98.319221 363.084900,92.047989 357.656006,77.098946 
M253.485352,70.646301 
	C244.526794,70.646301 235.568222,70.646301 226.390060,70.646301 
	C226.390060,76.983032 226.390060,82.863838 226.390060,88.654419 
	C228.797882,88.654419 230.873184,88.654419 233.433624,88.654419 
	C233.433624,85.069138 233.433624,81.822762 233.433624,78.612808 
	C235.684174,78.612808 237.438416,78.612808 239.367325,78.612808 
	C239.367325,88.663857 239.367325,98.389046 239.367325,108.269577 
	C237.190323,108.562149 235.303497,108.815727 233.389435,109.072968 
	C233.389435,111.510994 233.389435,113.609337 233.389435,115.834198 
	C241.305496,115.834198 248.977020,115.834198 256.564545,115.834198 
	C256.564545,113.274590 256.564545,111.166893 256.564545,109.003960 
	C254.531036,108.735657 252.761185,108.502136 250.877686,108.253624 
	C250.877686,98.275986 250.877686,88.534958 250.877686,78.671417 
	C253.073349,78.671417 254.934143,78.671417 257.242004,78.671417 
	C257.242004,82.309883 257.242004,85.566154 257.242004,88.798843 
	C259.644775,88.798843 261.592590,88.798843 263.734070,88.798843 
	C263.734070,82.717018 263.734070,76.830299 263.734070,70.646080 
	C260.437347,70.646080 257.457855,70.646080 253.485352,70.646301 
M105.976959,135.773529 
	C104.503181,136.599930 102.691437,137.124527 101.626999,138.316467 
	C99.506836,140.690582 97.797394,143.431473 95.827545,146.145874 
	C88.143799,134.709534 90.192696,134.774521 80.378693,136.604767 
	C83.748047,141.187805 87.053177,145.683487 90.328880,150.139130 
	C86.368652,155.206436 82.734474,159.856537 79.066475,164.549911 
	C89.219467,167.794159 90.350388,158.350677 95.111282,154.186768 
	C103.567039,165.920837 103.567039,165.920837 111.621109,164.391998 
	C107.965370,159.542343 104.392540,154.802658 100.634392,149.817154 
	C103.480301,146.180145 106.220291,142.678513 108.145531,140.218094 
	C113.035179,140.634232 117.012192,140.972702 121.373520,141.343887 
	C121.373520,149.406921 121.373520,157.153717 121.373520,164.705597 
	C124.062508,164.705597 126.302414,164.705597 129.000549,164.705597 
	C129.000549,156.612732 129.000549,148.875320 129.000549,140.721222 
	C132.898636,140.721222 136.320892,140.721222 140.019073,140.721222 
	C139.879761,138.854553 139.774872,137.449173 139.649719,135.772308 
	C128.505997,135.772308 117.696709,135.772308 105.976959,135.773529 
M219.090775,140.728897 
	C218.540482,141.749847 217.866470,142.724030 217.459961,143.799332 
	C214.787292,150.869308 216.759201,159.133926 221.940720,162.820923 
	C227.901459,167.062332 239.137039,166.629028 244.441254,161.953217 
	C251.723419,155.533768 250.191422,141.348343 241.748581,137.020844 
	C234.638458,133.376465 225.574921,134.652328 219.090775,140.728897 
M253.914963,164.759750 
	C256.170776,164.759750 258.426605,164.759750 261.104614,164.759750 
	C261.104614,160.799133 261.104614,157.062149 261.104614,153.325180 
	C261.602081,152.996780 262.099518,152.668396 262.596985,152.339996 
	C264.919159,154.811844 267.703491,156.996292 269.459656,159.820145 
	C272.394135,164.538727 276.057892,166.336533 281.897034,164.505203 
	C278.619476,160.386780 275.460693,156.417618 272.209595,152.332428 
	C276.535675,150.543549 279.798370,147.551559 278.795532,142.290619 
	C277.791595,137.023727 273.259247,135.933853 268.855560,135.627838 
	C263.805878,135.276947 258.713074,135.546478 253.444412,135.546478 
	C253.444412,145.681366 253.444412,154.828949 253.914963,164.759750 
M194.489075,165.057648 
	C195.879578,165.057648 197.270096,165.057648 199.576889,165.057648 
	C195.724030,160.244232 192.539856,156.266190 189.360840,152.294632 
	C193.838638,150.574951 196.927704,147.510818 195.919556,142.177551 
	C194.963943,137.122101 190.650681,136.010574 186.417221,135.724976 
	C181.350937,135.383224 176.244003,135.644318 170.947922,135.644318 
	C170.947922,145.757416 170.947922,155.163422 170.947922,164.791214 
	C173.360168,164.791214 175.579819,164.791214 178.226624,164.791214 
	C178.226624,160.806732 178.226624,157.072495 178.226624,153.311447 
	C183.671143,152.787201 184.328812,157.675476 187.039780,159.998520 
	C189.146881,161.804077 191.450897,163.379837 194.489075,165.057648 
M293.261719,135.384460 
	C289.082489,136.428116 285.088104,137.726578 284.785278,143.018539 
	C284.466248,148.593491 288.729523,150.186813 292.750549,151.868759 
	C294.889221,152.763351 297.242554,153.199768 299.277557,154.265717 
	C300.423187,154.865799 301.118500,156.325546 302.016663,157.398056 
	C300.841339,158.363129 299.729584,160.050201 298.478943,160.160309 
	C294.433716,160.516449 290.337463,160.293243 285.603912,160.293243 
	C285.386993,160.752350 284.713745,162.177322 283.337677,165.089905 
	C290.002533,165.089905 295.729095,165.417969 301.397003,164.982391 
	C305.657013,164.655014 309.040588,162.260391 309.632904,157.617966 
	C310.260345,152.700638 306.781921,150.545441 302.921875,148.930038 
	C300.016388,147.714142 296.992035,146.764435 294.154480,145.414749 
	C293.303131,145.009811 292.341827,143.584717 292.450531,142.761688 
	C292.561157,141.924576 293.875916,140.698639 294.756470,140.614304 
	C297.357971,140.365128 300.109497,140.154984 302.609894,140.745041 
	C306.145111,141.579315 307.899078,140.695160 308.335480,135.954285 
	C303.493713,135.709808 298.800049,135.472809 293.261719,135.384460 
M150.532608,159.124451 
	C150.532608,157.179825 150.532608,155.235214 150.532608,152.873657 
	C155.170746,152.873657 159.431351,152.873657 163.836029,152.873657 
	C163.836029,150.940384 163.836029,149.435501 163.836029,147.474030 
	C159.208923,147.474030 154.969177,147.474030 150.671326,147.474030 
	C150.671326,145.097961 150.671326,143.186218 150.671326,140.869598 
	C155.719269,140.869598 160.488022,140.869598 165.503952,140.869598 
	C165.503952,139.073593 165.503952,137.685135 165.503952,136.107651 
	C157.947052,136.107651 150.582458,136.107651 143.184326,136.107651 
	C143.184326,145.843140 143.184326,155.254013 143.184326,164.801208 
	C150.834717,164.801208 158.237045,164.801208 165.737946,164.801208 
	C165.737946,163.141556 165.737946,161.746140 165.737946,159.784317 
	C160.717148,159.784317 155.926514,159.784317 150.532608,159.124451 
M67.478912,135.786133 
	C63.026985,135.786133 58.575054,135.786133 54.016441,135.786133 
	C54.016441,145.779114 54.016441,155.290039 54.016441,164.684479 
	C61.778286,164.684479 69.177544,164.684479 76.852737,164.684479 
	C76.662384,162.885803 76.515198,161.495041 76.325661,159.704041 
	C71.025192,159.704041 66.102989,159.704041 61.435997,159.704041 
	C61.435997,157.177750 61.435997,155.105988 61.435997,152.709259 
	C66.079292,152.709259 70.356247,152.709259 74.766846,152.709259 
	C74.766846,150.957001 74.766846,149.550995 74.766846,147.627777 
	C70.140953,147.627777 65.735329,147.627777 61.306313,147.627777 
	C61.306313,145.172867 61.306313,143.246353 61.306313,140.882935 
	C66.283707,140.882935 71.044456,140.882935 76.030197,140.882935 
	C76.030197,139.042664 76.030197,137.645416 76.030197,135.786148 
	C73.382652,135.786148 70.924988,135.786148 67.478912,135.786133 
M208.422409,135.800491 
	C206.977692,135.800491 205.532959,135.800491 204.038025,135.800491 
	C204.038025,145.831375 204.038025,155.338791 204.038025,164.800323 
	C206.506592,164.800323 208.596634,164.800323 211.044266,164.800323 
	C211.044266,155.613281 211.078064,146.668365 210.973434,137.725067 
	C210.965912,137.082001 209.947556,136.450729 208.422409,135.800491 
M189.855652,189.214005 
	C190.897736,190.684830 191.939819,192.155655 192.981903,193.626480 
	C193.971741,192.115326 195.222443,190.709808 195.887589,189.067184 
	C196.787170,186.845612 197.237152,184.442001 197.880020,182.116486 
	C197.384949,181.818375 196.889862,181.520248 196.394775,181.222137 
	C195.091553,183.330246 193.788330,185.438354 192.651932,187.276611 
	C191.626770,185.592743 190.434586,183.634537 189.242401,181.676315 
	C187.872955,183.606506 186.503510,185.536697 185.213638,187.354736 
	C183.039780,182.224640 183.039780,182.224640 180.169159,182.110641 
	C180.802200,184.371704 181.261612,186.622604 182.077545,188.735825 
	C182.741699,190.455872 183.832840,192.011063 184.734650,193.639359 
	C185.923065,192.121841 187.086990,190.583954 188.319260,189.102905 
	C188.585785,188.782562 189.098175,188.666733 189.855652,189.214005 
M151.494949,194.383316 
	C151.231842,194.758820 150.968750,195.134323 150.705643,195.509827 
	C152.419800,196.213760 154.212311,197.597351 155.823898,197.411545 
	C157.168777,197.256485 159.070663,195.426178 159.363998,194.047928 
	C159.928207,191.397034 159.528381,188.540970 159.528381,184.569244 
	C156.151352,185.628540 153.067596,185.976212 150.940353,187.587051 
	C150.157623,188.179764 151.633926,191.755722 151.494949,194.383316 
M76.271660,196.094437 
	C78.546364,196.351257 82.538078,197.359848 82.809639,196.739594 
	C84.277573,193.386948 84.824074,189.630859 85.809738,185.505234 
	C83.666771,185.505234 82.886032,185.525375 82.106583,185.502060 
	C75.550430,185.305847 74.658501,186.677368 76.931252,193.119324 
	C77.131828,193.687836 76.312866,194.616043 76.271660,196.094437 
M133.502670,190.101715 
	C133.361282,186.798340 133.219879,183.494965 133.078476,180.191589 
	C132.461212,180.206772 131.843948,180.221954 131.226685,180.237122 
	C130.828751,181.848602 130.430801,183.460068 130.032867,185.071533 
	C129.644150,184.757492 129.255432,184.443436 128.866714,184.129379 
	C127.233406,185.863052 125.094719,187.378510 124.207115,189.434174 
	C123.834412,190.297318 126.550987,193.713745 127.102310,193.541016 
	C129.247253,192.868988 133.155914,195.869095 133.502670,190.101715 
M29.586426,188.079361 
	C29.782000,186.453537 30.556379,183.638367 30.074776,183.403992 
	C27.765621,182.280197 25.116653,181.854614 22.211140,181.080460 
	C22.211140,185.849106 22.211140,189.580383 22.211140,193.311661 
	C22.532211,193.518982 22.853281,193.726318 23.174353,193.933655 
	C24.097692,192.807617 25.021032,191.681564 25.585566,190.993103 
	C27.224306,191.976105 28.853924,192.953629 30.483543,193.931152 
	C30.676607,193.591843 30.869671,193.252533 31.062735,192.913223 
	C30.390970,191.483093 29.719208,190.052948 29.586426,188.079361 
M111.813889,190.856339 
	C111.142075,191.051559 110.470261,191.246765 109.798454,191.441986 
	C110.240707,192.151932 110.823013,193.525681 111.103020,193.466629 
	C113.309731,193.001053 116.242058,192.908890 117.442444,191.455673 
	C119.257263,189.258575 117.442169,187.233841 114.997955,186.159210 
	C114.337891,185.868988 113.734108,185.450775 112.557831,184.779205 
	C114.556427,184.180511 115.889801,183.781082 117.909561,183.176041 
	C114.827980,180.659134 112.286140,180.442627 110.475708,182.947113 
	C108.661385,185.456985 109.765663,187.585663 112.676476,188.737732 
	C114.513138,189.464661 115.278549,190.318573 111.813889,190.856339 
M53.056080,190.284058 
	C53.372139,186.922592 51.445377,185.021835 48.481922,185.222656 
	C46.754086,185.339737 44.616356,186.944580 43.693222,188.493881 
	C43.163383,189.383102 44.547043,192.738495 45.323448,192.830109 
	C47.606567,193.099548 50.020256,192.312225 52.371063,191.875351 
	C52.586506,191.835312 52.717785,191.342377 53.056080,190.284058 
M33.917896,186.213440 
	C31.500978,188.838531 31.544968,191.633514 34.730694,193.079376 
	C36.383465,193.829498 39.183971,193.172668 40.905029,192.179428 
	C41.771858,191.679153 41.986286,187.794067 41.462982,187.536316 
	C39.386799,186.513702 36.903145,186.318359 33.917896,186.213440 
M232.551941,192.987305 
	C234.963852,190.538712 235.293915,187.738495 232.210999,186.078629 
	C230.629654,185.227264 227.783981,185.722153 226.023407,186.618103 
	C225.109634,187.083115 224.636154,190.922180 225.132278,191.207870 
	C227.117950,192.351334 229.561432,192.699814 232.551941,192.987305 
M68.322739,189.160355 
	C69.181335,189.193497 70.725929,189.052795 70.785629,189.288391 
	C71.136230,190.671875 71.140297,192.143188 71.261185,193.584885 
	C71.860321,193.676025 72.459450,193.767181 73.058578,193.858322 
	C73.364632,191.901611 74.294197,189.791962 73.858841,188.017105 
	C72.595634,182.867279 68.466179,186.565079 65.444237,185.207062 
	C65.329544,187.221970 65.005043,188.712311 65.237038,190.110306 
	C65.441620,191.343140 66.267525,192.472855 66.819084,193.648102 
	C67.293457,192.428833 67.767822,191.209549 68.322739,189.160355 
M295.902893,187.859085 
	C295.311066,186.928391 294.719208,185.997711 294.127380,185.067017 
	C293.435791,185.397720 292.744232,185.728424 292.052643,186.059113 
	C293.111664,188.616028 293.801880,191.468811 295.464600,193.541367 
	C295.935699,194.128571 300.160034,193.007141 301.008911,191.641266 
	C301.955109,190.118835 301.015717,187.424515 300.897064,185.240295 
	C300.322235,185.269196 299.747406,185.298111 299.172577,185.327026 
	C298.732727,187.280914 298.292847,189.234818 297.852966,191.188705 
	C297.529846,191.242767 297.206696,191.296814 296.883575,191.350861 
	C296.559265,190.476059 296.234985,189.601257 295.902893,187.859085 
M140.598480,193.535950 
	C145.594849,194.277954 140.867920,188.154434 145.138260,187.935364 
	C145.495163,189.766571 145.871124,191.695618 146.247101,193.624664 
	C146.818863,193.682327 147.390625,193.739990 147.962387,193.797653 
	C148.185516,191.775085 149.306107,188.632874 148.454895,187.950577 
	C146.334061,186.250549 143.315948,185.669891 140.092758,184.420807 
	C140.092758,188.217636 140.092758,190.529129 140.598480,193.535950 
M335.508362,193.912292 
	C338.498749,193.833466 340.983185,193.305420 339.651855,189.319077 
	C339.264923,188.160461 338.919983,186.987839 338.322723,185.075455 
	C337.480774,185.326462 334.689484,185.550522 334.530304,186.319534 
	C334.043182,188.672241 334.567566,191.234360 335.508362,193.912292 
M326.658722,193.431854 
	C327.474792,193.003448 328.686707,192.778717 329.031830,192.108002 
	C330.020020,190.187546 330.656555,188.086182 331.444427,186.021713 
	C330.110657,185.832825 328.388611,185.588943 326.170227,185.274765 
	C326.170227,187.980560 326.170227,190.378937 326.658722,193.431854 
M172.344620,185.902496 
	C171.204865,186.986389 169.878235,187.950623 169.054642,189.236938 
	C168.844482,189.565155 170.116730,191.499680 170.907257,191.650360 
	C171.970444,191.853058 174.224731,191.043350 174.225525,190.664536 
	C174.228760,189.136185 173.562332,187.606430 172.344620,185.902496 
M96.304741,185.907318 
	C95.161552,186.980911 93.825470,187.930801 93.004494,189.211029 
	C92.786575,189.550858 94.037308,191.499634 94.817314,191.649414 
	C95.876228,191.852753 98.113922,191.064407 98.125839,190.651718 
	C98.169479,189.141129 97.500084,187.609970 96.304741,185.907318 
M268.403015,186.029388 
	C265.716217,185.557892 263.945496,186.753738 264.473480,189.373672 
	C264.679260,190.394867 267.069122,190.975937 268.464142,191.757477 
	C268.679535,189.978897 268.894928,188.200302 268.403015,186.029388 
M135.128601,191.169708 
	C135.736618,192.078384 136.344650,192.987045 136.952682,193.895706 
	C137.220215,193.712021 137.487762,193.528336 137.755310,193.344666 
	C137.755310,190.685059 137.755310,188.025452 137.755310,185.365845 
	C137.154602,185.275238 136.553879,185.184631 135.953171,185.094025 
	C135.677567,186.839722 135.401978,188.585419 135.128601,191.169708 
z"/>
<path fill="#B21836" opacity="1.000000" stroke="none" 
	d="
M40.853745,80.985916 
	C39.893703,84.592026 38.933659,88.198135 37.323345,91.959030 
	C36.115391,92.711136 35.557705,93.308456 35.000023,93.905777 
	C34.507065,104.624680 41.420162,110.088821 53.309486,108.067886 
	C53.309486,98.401390 53.309486,88.676979 53.309486,78.643486 
	C51.413429,78.426552 49.651505,78.224960 47.523369,77.981476 
	C47.523369,75.758003 47.523369,73.551270 47.523369,70.995331 
	C55.137501,70.995331 62.713776,70.995331 70.632507,70.995331 
	C70.632507,73.169197 70.632507,75.410851 70.632507,78.009888 
	C68.813477,78.182030 66.921150,78.361107 64.751450,78.566437 
	C64.751450,88.532524 64.751450,98.267052 64.751450,108.311317 
	C66.685127,108.508331 68.452782,108.688423 70.596558,108.906845 
	C70.596558,111.080315 70.596558,113.293495 70.596558,116.259193 
	C68.002548,116.259193 65.249146,116.259453 62.495739,116.259140 
	C54.012363,116.258186 45.527077,116.155640 37.046722,116.315170 
	C34.361115,116.365685 32.837105,115.654991 31.763163,113.039726 
	C29.871859,108.434029 27.743992,103.895088 25.301962,99.561028 
	C24.339109,97.852165 22.269011,96.767181 20.703104,95.398117 
	C20.265570,95.767326 19.828033,96.136543 19.390499,96.505760 
	C19.390499,100.269073 19.390499,104.032387 19.390499,108.116356 
	C20.772581,108.409119 22.314247,108.735687 24.063843,109.106300 
	C24.063843,111.297318 24.063843,113.411415 24.063843,115.897110 
	C17.038389,115.897110 10.000133,115.897110 2.689105,115.897110 
	C2.689105,113.622589 2.689105,111.535309 2.689105,109.161049 
	C4.291370,108.870171 5.867217,108.584084 7.774992,108.237732 
	C7.774992,98.529137 7.774992,88.790527 7.774992,78.699043 
	C6.365777,78.468681 4.791170,78.211288 2.794675,77.884933 
	C2.794675,75.753036 2.794675,73.551559 2.794675,71.112991 
	C12.442806,71.112991 22.040283,70.759590 31.591993,71.267258 
	C36.131775,71.508545 39.420956,74.692482 40.643379,79.781021 
	C40.352795,80.583633 40.471115,80.833946 40.853745,80.985916 
M21.649742,89.049568 
	C22.106215,89.095917 22.562689,89.142265 23.207937,89.465439 
	C23.207937,89.465439 23.656443,89.529640 23.656443,89.529640 
	C23.656443,89.529640 23.983128,89.170715 24.702860,88.982750 
	C29.123800,88.318130 30.213995,85.393227 30.038864,80.852982 
	C31.994307,77.057999 28.834486,79.368889 27.103500,78.920845 
	C24.605354,78.649536 22.107208,78.378235 19.055206,78.046776 
	C19.055206,82.092621 19.055206,85.457321 19.247732,89.314484 
	C19.822674,89.273453 20.397617,89.232422 21.649742,89.049568 
z"/>
<path fill="#B31B39" opacity="1.000000" stroke="none" 
	d="
M117.751678,90.480087 
	C118.347313,106.879837 111.137451,115.804680 97.095871,116.199951 
	C89.292480,116.419617 81.477837,116.239380 73.279442,116.239380 
	C73.279442,113.742569 73.279442,111.378860 73.279442,108.900589 
	C75.142677,108.716499 76.908691,108.542023 78.883110,108.346954 
	C78.883110,98.370903 78.883110,88.631187 78.883110,78.629860 
	C76.998695,78.426247 75.231789,78.235329 73.174225,78.013000 
	C73.174225,75.775024 73.174225,73.531158 73.174225,71.209854 
	C82.812843,71.209854 92.492065,70.274857 101.902626,71.464684 
	C111.934662,72.733093 116.490715,80.383339 117.751678,90.480087 
M90.042404,80.930412 
	C90.042404,90.004082 90.042404,99.077751 90.042404,108.069054 
	C98.067352,109.255913 103.114960,106.932785 105.263542,101.367043 
	C108.123695,93.958038 106.233589,83.323036 100.981163,80.398987 
	C97.687096,78.565163 93.807503,76.255211 90.042404,80.930412 
z"/>
<path fill="#B31C3A" opacity="1.000000" stroke="none" 
	d="
M277.372009,111.705536 
	C268.912720,103.310173 266.920776,90.975639 272.200989,81.198013 
	C276.952423,72.399544 287.765564,67.863113 298.463806,70.374702 
	C307.585083,72.516090 313.414032,78.164917 315.299347,87.425041 
	C317.262482,97.067169 315.573090,105.898041 307.406708,112.133972 
	C299.418976,118.233459 290.499329,118.423691 281.461700,114.294342 
	C280.114227,113.678665 278.919037,112.729721 277.372009,111.705536 
M282.409546,100.718208 
	C285.611694,106.964417 289.145752,109.219109 294.370758,108.349274 
	C299.519928,107.492058 303.557770,103.256622 303.838470,97.034149 
	C304.027252,92.849281 303.381500,88.417000 302.077637,84.432991 
	C300.749237,80.374245 297.095459,78.212883 292.690552,78.223763 
	C288.283905,78.234634 285.135132,80.583076 283.174805,84.432083 
	C280.625397,89.437721 280.558563,94.665001 282.409546,100.718208 
z"/>
<path fill="#B31C3A" opacity="1.000000" stroke="none" 
	d="
M149.979492,116.255898 
	C131.971420,119.329735 119.618889,109.041206 120.406021,92.286880 
	C121.291008,73.449440 139.465927,64.275291 153.571014,72.314720 
	C157.351791,71.403465 159.792343,70.815239 162.699188,70.114624 
	C162.699188,76.016060 162.699188,81.107918 162.699188,86.559891 
	C159.082367,87.110939 156.047882,87.644409 153.796753,83.185097 
	C151.707993,79.047394 147.422867,77.479126 142.713669,78.090958 
	C138.191284,78.678513 135.062775,81.285744 133.498199,85.511200 
	C131.241425,91.606071 131.597748,97.643867 134.907578,103.278687 
	C137.346924,107.431503 141.303085,108.952080 145.981491,108.440781 
	C150.193069,107.980499 152.831207,105.616592 154.078308,101.175232 
	C151.608429,101.059868 149.520264,100.962341 147.188049,100.853409 
	C147.188049,98.400612 147.188049,96.129715 147.188049,93.483765 
	C153.504257,93.483765 159.861435,93.483765 166.212692,93.483765 
	C167.035370,105.159065 161.402603,113.170235 149.979492,116.255898 
z"/>
<path fill="#B21937" opacity="1.000000" stroke="none" 
	d="
M167.961639,73.002762 
	C168.901993,71.903976 169.829193,70.751991 170.769257,70.741409 
	C181.922119,70.615860 193.076920,70.660553 204.587708,70.660553 
	C204.587708,75.450012 204.587708,79.996284 204.587708,84.786575 
	C202.102966,84.786575 199.704208,84.786575 197.129059,84.786575 
	C196.972855,82.629562 196.833466,80.704697 196.676437,78.536140 
	C192.503418,78.536140 188.574387,78.536140 184.280258,78.536140 
	C184.280258,81.819695 184.280258,85.052376 184.280258,88.702194 
	C187.411484,88.843994 190.650604,88.990685 193.999008,89.142326 
	C193.999008,91.672112 193.999008,93.914276 193.999008,96.607407 
	C190.632141,96.607407 187.531525,96.607407 184.183197,96.607407 
	C184.183197,100.662270 184.183197,104.270805 184.183197,108.263779 
	C188.217453,108.263779 192.262314,108.263779 196.638550,108.263779 
	C196.802124,106.320274 196.963852,104.398849 197.151001,102.175201 
	C199.600296,102.175201 202.002502,102.175201 204.678497,102.175201 
	C204.678497,106.663086 204.678497,111.087433 204.678497,115.890404 
	C192.617310,115.890404 180.577637,115.890404 168.244125,115.890404 
	C168.244125,113.649551 168.244125,111.406380 168.244125,108.923019 
	C169.725174,108.737488 171.146637,108.559418 172.762756,108.356964 
	C172.762756,98.370834 172.762756,88.621872 172.762756,78.613419 
	C171.209702,78.400139 169.789597,78.205124 167.954483,77.953110 
	C167.954483,76.417999 167.954483,74.948914 167.961639,73.002762 
z"/>
<path fill="#B31C3A" opacity="1.000000" stroke="none" 
	d="
M357.823792,77.445961 
	C363.084900,92.047989 357.555054,98.319221 337.985809,100.109558 
	C337.985809,102.631310 337.985809,105.200417 337.985809,108.165314 
	C339.450714,108.402069 341.013763,108.654694 342.981445,108.972710 
	C342.981445,111.116058 342.981445,113.337784 342.981445,115.924339 
	C336.069672,115.924339 328.998260,115.924339 321.575500,115.924339 
	C321.575500,113.707397 321.575500,111.474510 321.575500,109.034561 
	C323.054565,108.793098 324.491516,108.558502 326.298920,108.263435 
	C326.298920,98.549194 326.298920,88.823524 326.298920,78.769318 
	C324.810974,78.495827 323.242920,78.207611 321.466797,77.881149 
	C321.466797,75.689011 321.466797,73.581284 321.466797,70.254555 
	C331.096191,70.732628 340.666016,70.845596 350.129089,71.908997 
	C352.798767,72.208992 355.155670,75.292244 357.823792,77.445961 
M344.269684,78.979317 
	C342.226562,78.753876 340.183441,78.528435 338.016296,78.289307 
	C338.016296,83.239357 338.016296,87.575821 338.016296,93.755203 
	C341.883331,91.587357 345.586853,90.666214 347.194733,88.313103 
	C349.140106,85.466179 348.632172,81.583443 344.269684,78.979317 
z"/>
<path fill="#B31C3A" opacity="1.000000" stroke="none" 
	d="
M253.981842,70.646194 
	C257.457855,70.646080 260.437347,70.646080 263.734070,70.646080 
	C263.734070,76.830299 263.734070,82.717018 263.734070,88.798843 
	C261.592590,88.798843 259.644775,88.798843 257.242004,88.798843 
	C257.242004,85.566154 257.242004,82.309883 257.242004,78.671417 
	C254.934143,78.671417 253.073349,78.671417 250.877686,78.671417 
	C250.877686,88.534958 250.877686,98.275986 250.877686,108.253624 
	C252.761185,108.502136 254.531036,108.735657 256.564545,109.003960 
	C256.564545,111.166893 256.564545,113.274590 256.564545,115.834198 
	C248.977020,115.834198 241.305496,115.834198 233.389435,115.834198 
	C233.389435,113.609337 233.389435,111.510994 233.389435,109.072968 
	C235.303497,108.815727 237.190323,108.562149 239.367325,108.269577 
	C239.367325,98.389046 239.367325,88.663857 239.367325,78.612808 
	C237.438416,78.612808 235.684174,78.612808 233.433624,78.612808 
	C233.433624,81.822762 233.433624,85.069138 233.433624,88.654419 
	C230.873184,88.654419 228.797882,88.654419 226.390060,88.654419 
	C226.390060,82.863838 226.390060,76.983032 226.390060,70.646301 
	C235.568222,70.646301 244.526794,70.646301 253.981842,70.646194 
z"/>
<path fill="#192F54" opacity="1.000000" stroke="none" 
	d="
M106.432190,135.772919 
	C117.696709,135.772308 128.505997,135.772308 139.649719,135.772308 
	C139.774872,137.449173 139.879761,138.854553 140.019073,140.721222 
	C136.320892,140.721222 132.898636,140.721222 129.000549,140.721222 
	C129.000549,148.875320 129.000549,156.612732 129.000549,164.705597 
	C126.302414,164.705597 124.062508,164.705597 121.373520,164.705597 
	C121.373520,157.153717 121.373520,149.406921 121.373520,141.343887 
	C117.012192,140.972702 113.035179,140.634232 108.145531,140.218094 
	C106.220291,142.678513 103.480301,146.180145 100.634392,149.817154 
	C104.392540,154.802658 107.965370,159.542343 111.621109,164.391998 
	C103.567039,165.920837 103.567039,165.920837 95.113220,154.189590 
	C90.350388,158.350677 89.219467,167.794159 79.066475,164.549911 
	C82.734474,159.856537 86.368652,155.206436 90.328880,150.139130 
	C87.053177,145.683487 83.748047,141.187805 80.378693,136.604767 
	C90.192696,134.774521 88.143799,134.709534 95.827545,146.145874 
	C97.797394,143.431473 99.506836,140.690582 101.626999,138.316467 
	C102.691437,137.124527 104.503181,136.599930 106.432190,135.772919 
z"/>
<path fill="#1A3054" opacity="1.000000" stroke="none" 
	d="
M219.321686,140.437134 
	C225.574921,134.652328 234.638458,133.376465 241.748581,137.020844 
	C250.191422,141.348343 251.723419,155.533768 244.441254,161.953217 
	C239.137039,166.629028 227.901459,167.062332 221.940720,162.820923 
	C216.759201,159.133926 214.787292,150.869308 217.459961,143.799332 
	C217.866470,142.724030 218.540482,141.749847 219.321686,140.437134 
M237.637848,141.752533 
	C233.997818,139.504211 230.221481,139.349030 227.103195,142.292343 
	C223.614548,145.585220 223.768066,149.967361 224.820129,154.346283 
	C225.883972,158.774170 228.859467,160.607193 233.190521,160.462830 
	C237.407806,160.322266 240.549835,158.010956 240.601685,153.941315 
	C240.651245,150.051025 239.098114,146.140335 237.637848,141.752533 
z"/>
<path fill="#1C3256" opacity="1.000000" stroke="none" 
	d="
M253.679688,164.368149 
	C253.444412,154.828949 253.444412,145.681366 253.444412,135.546478 
	C258.713074,135.546478 263.805878,135.276947 268.855560,135.627838 
	C273.259247,135.933853 277.791595,137.023727 278.795532,142.290619 
	C279.798370,147.551559 276.535675,150.543549 272.209595,152.332428 
	C275.460693,156.417618 278.619476,160.386780 281.897034,164.505203 
	C276.057892,166.336533 272.394135,164.538727 269.459656,159.820145 
	C267.703491,156.996292 264.919159,154.811844 262.596985,152.339996 
	C262.099518,152.668396 261.602081,152.996780 261.104614,153.325180 
	C261.104614,157.062149 261.104614,160.799133 261.104614,164.759750 
	C258.426605,164.759750 256.170776,164.759750 253.679688,164.368149 
M265.940247,140.443390 
	C264.357056,140.512833 262.773834,140.582291 261.274994,140.648041 
	C261.274994,143.750824 261.274994,146.316238 261.274994,149.018127 
	C265.059784,148.862686 269.256134,150.169556 270.779175,145.528503 
	C271.781860,142.473129 269.499207,141.101089 265.940247,140.443390 
z"/>
<path fill="#162C52" opacity="1.000000" stroke="none" 
	d="
M194.078232,165.057693 
	C191.450897,163.379837 189.146881,161.804077 187.039780,159.998520 
	C184.328812,157.675476 183.671143,152.787201 178.226624,153.311447 
	C178.226624,157.072495 178.226624,160.806732 178.226624,164.791214 
	C175.579819,164.791214 173.360168,164.791214 170.947922,164.791214 
	C170.947922,155.163422 170.947922,145.757416 170.947922,135.644318 
	C176.244003,135.644318 181.350937,135.383224 186.417221,135.724976 
	C190.650681,136.010574 194.963943,137.122101 195.919556,142.177551 
	C196.927704,147.510818 193.838638,150.574951 189.360840,152.294632 
	C192.539856,156.266190 195.724030,160.244232 199.576889,165.057648 
	C197.270096,165.057648 195.879578,165.057648 194.078232,165.057693 
M186.220779,141.185608 
	C183.590363,140.924347 180.959961,140.663071 178.340576,140.402908 
	C178.340576,143.857056 178.340576,146.286041 178.340576,149.919907 
	C181.712570,148.860321 184.717560,148.278488 187.258347,146.863251 
	C187.894974,146.508621 187.039581,143.475388 186.220779,141.185608 
z"/>
<path fill="#1A3155" opacity="1.000000" stroke="none" 
	d="
M293.684052,135.310135 
	C298.800049,135.472809 303.493713,135.709808 308.335480,135.954285 
	C307.899078,140.695160 306.145111,141.579315 302.609894,140.745041 
	C300.109497,140.154984 297.357971,140.365128 294.756470,140.614304 
	C293.875916,140.698639 292.561157,141.924576 292.450531,142.761688 
	C292.341827,143.584717 293.303131,145.009811 294.154480,145.414749 
	C296.992035,146.764435 300.016388,147.714142 302.921875,148.930038 
	C306.781921,150.545441 310.260345,152.700638 309.632904,157.617966 
	C309.040588,162.260391 305.657013,164.655014 301.397003,164.982391 
	C295.729095,165.417969 290.002533,165.089905 283.337677,165.089905 
	C284.713745,162.177322 285.386993,160.752350 285.603912,160.293243 
	C290.337463,160.293243 294.433716,160.516449 298.478943,160.160309 
	C299.729584,160.050201 300.841339,158.363129 302.016663,157.398041 
	C301.118500,156.325546 300.423187,154.865799 299.277557,154.265717 
	C297.242554,153.199768 294.889221,152.763351 292.750549,151.868759 
	C288.729523,150.186813 284.466248,148.593491 284.785278,143.018539 
	C285.088104,137.726578 289.082489,136.428116 293.684052,135.310135 
z"/>
<path fill="#142B51" opacity="1.000000" stroke="none" 
	d="
M150.834244,159.454376 
	C155.926514,159.784317 160.717148,159.784317 165.737946,159.784317 
	C165.737946,161.746140 165.737946,163.141556 165.737946,164.801208 
	C158.237045,164.801208 150.834717,164.801208 143.184326,164.801208 
	C143.184326,155.254013 143.184326,145.843140 143.184326,136.107651 
	C150.582458,136.107651 157.947052,136.107651 165.503952,136.107651 
	C165.503952,137.685135 165.503952,139.073593 165.503952,140.869598 
	C160.488022,140.869598 155.719269,140.869598 150.671326,140.869598 
	C150.671326,143.186218 150.671326,145.097961 150.671326,147.474030 
	C154.969177,147.474030 159.208923,147.474030 163.836029,147.474030 
	C163.836029,149.435501 163.836029,150.940384 163.836029,152.873657 
	C159.431351,152.873657 155.170746,152.873657 150.532608,152.873657 
	C150.532608,155.235214 150.532608,157.179825 150.834244,159.454376 
z"/>
<path fill="#132B51" opacity="1.000000" stroke="none" 
	d="
M67.973114,135.786133 
	C70.924988,135.786148 73.382652,135.786148 76.030197,135.786148 
	C76.030197,137.645416 76.030197,139.042664 76.030197,140.882935 
	C71.044456,140.882935 66.283707,140.882935 61.306313,140.882935 
	C61.306313,143.246353 61.306313,145.172867 61.306313,147.627777 
	C65.735329,147.627777 70.140953,147.627777 74.766846,147.627777 
	C74.766846,149.550995 74.766846,150.957001 74.766846,152.709259 
	C70.356247,152.709259 66.079292,152.709259 61.435997,152.709259 
	C61.435997,155.105988 61.435997,157.177750 61.435997,159.704041 
	C66.102989,159.704041 71.025192,159.704041 76.325661,159.704041 
	C76.515198,161.495041 76.662384,162.885803 76.852737,164.684479 
	C69.177544,164.684479 61.778286,164.684479 54.016441,164.684479 
	C54.016441,155.290039 54.016441,145.779114 54.016441,135.786133 
	C58.575054,135.786133 63.026985,135.786133 67.973114,135.786133 
z"/>
<path fill="#B41E3C" opacity="1.000000" stroke="none" 
	d="
M101.879150,42.581841 
	C96.315750,45.172104 96.134048,45.058578 96.114792,38.970852 
	C96.104836,35.824635 96.502098,32.603733 95.941055,29.559269 
	C95.585732,27.631208 93.803719,25.966066 92.059875,23.243671 
	C100.777786,23.243671 108.172821,23.243671 115.904915,23.243671 
	C116.019501,23.562136 116.527336,24.541201 116.386749,24.645403 
	C111.661812,28.147434 114.374512,34.460339 110.780296,38.381714 
	C110.113441,37.867001 109.781578,37.447754 109.057503,36.991043 
	C108.108315,37.324577 107.551331,37.695580 106.997536,38.033302 
	C107.000717,38.000023 107.065964,38.014652 106.686806,37.970627 
	C106.206474,38.304401 106.105301,38.682205 106.000771,39.030807 
	C105.997414,39.001598 106.053139,39.020344 105.726921,38.749016 
	C104.747368,38.966835 104.094032,39.455986 103.077217,39.944443 
	C102.456779,40.789013 102.199821,41.634274 101.963776,42.528053 
	C101.984695,42.576572 101.879150,42.581841 101.879150,42.581841 
z"/>
<path fill="#0F274D" opacity="1.000000" stroke="none" 
	d="
M208.910797,135.807220 
	C209.947556,136.450729 210.965912,137.082001 210.973434,137.725067 
	C211.078064,146.668365 211.044266,155.613281 211.044266,164.800323 
	C208.596634,164.800323 206.506592,164.800323 204.038025,164.800323 
	C204.038025,155.338791 204.038025,145.831375 204.038025,135.800491 
	C205.532959,135.800491 206.977692,135.800491 208.910797,135.807220 
z"/>
<path fill="#171717" opacity="1.000000" stroke="none" 
	d="
M189.676483,188.835358 
	C189.098175,188.666733 188.585785,188.782562 188.319260,189.102905 
	C187.086990,190.583954 185.923065,192.121841 184.734650,193.639343 
	C183.832840,192.011063 182.741699,190.455872 182.077545,188.735825 
	C181.261612,186.622604 180.802200,184.371704 180.169159,182.110641 
	C183.039780,182.224640 183.039780,182.224640 185.213638,187.354736 
	C186.503510,185.536697 187.872955,183.606506 189.242401,181.676315 
	C190.434586,183.634537 191.626770,185.592743 192.651932,187.276611 
	C193.788330,185.438354 195.091553,183.330246 196.394775,181.222137 
	C196.889862,181.520248 197.384949,181.818375 197.880020,182.116486 
	C197.237152,184.442001 196.787170,186.845612 195.887589,189.067184 
	C195.222443,190.709808 193.971741,192.115326 192.981903,193.626480 
	C191.939819,192.155655 190.897736,190.684830 189.676483,188.835358 
z"/>
<path fill="#090909" opacity="1.000000" stroke="none" 
	d="
M275.086761,51.372955 
	C277.417419,54.114597 279.748108,56.856239 282.217224,59.760742 
	C276.615784,59.760742 270.977783,59.760742 265.036804,59.760742 
	C265.036804,56.429790 265.036804,53.042889 265.036804,49.619225 
	C266.327423,49.436821 267.784210,49.230934 269.620300,49.261959 
	C270.005890,49.678734 270.012115,49.858601 269.872620,50.360851 
	C270.495117,51.397915 271.263397,52.112598 272.377686,53.046852 
	C273.158813,53.207905 273.593933,53.149395 274.017120,53.041649 
	C274.005219,52.992416 273.906128,53.013523 273.801941,53.324425 
	C274.118042,53.447044 274.538361,53.258759 275.005707,52.647224 
	C275.064087,51.940304 275.075439,51.656628 275.086761,51.372955 
z"/>
<path fill="#0D0D0D" opacity="1.000000" stroke="none" 
	d="
M185.933014,51.955471 
	C188.405487,50.777435 190.877960,49.599400 193.910217,48.154652 
	C193.910217,52.737930 193.910217,56.172218 193.910217,60.601883 
	C187.982040,60.040779 182.275620,59.500660 176.936584,58.573463 
	C177.883987,58.054344 178.464035,57.922302 179.294464,57.767723 
	C180.067902,57.339191 180.590942,56.933193 181.452026,56.359055 
	C181.889023,55.804085 181.987961,55.417252 182.050354,55.024353 
	C182.013809,55.018295 182.009125,55.092251 182.345749,55.346664 
	C183.312653,55.085075 183.942932,54.569077 184.908157,54.087318 
	C185.473068,53.399529 185.703033,52.677498 185.933014,51.955471 
z"/>
<path fill="#242424" opacity="1.000000" stroke="none" 
	d="
M151.787384,194.177124 
	C151.633926,191.755722 150.157623,188.179764 150.940353,187.587051 
	C153.067596,185.976212 156.151352,185.628540 159.528381,184.569244 
	C159.528381,188.540970 159.928207,191.397034 159.363998,194.047928 
	C159.070663,195.426178 157.168777,197.256485 155.823898,197.411545 
	C154.212311,197.597351 152.419800,196.213760 150.705643,195.509827 
	C150.968750,195.134323 151.231842,194.758820 151.787384,194.177124 
z"/>
<path fill="#262626" opacity="1.000000" stroke="none" 
	d="
M214.062317,190.776123 
	C213.015656,191.741867 211.968994,192.707611 210.214050,194.326889 
	C209.621399,191.897125 209.135300,189.904190 208.649185,187.911255 
	C208.296463,187.848160 207.943726,187.785065 207.590988,187.721970 
	C207.158127,189.533981 206.725266,191.345978 206.224838,193.440796 
	C204.062134,193.440796 201.832047,193.440796 199.295135,193.440796 
	C199.295135,190.802063 199.295135,188.281082 199.295135,185.045731 
	C204.029007,186.676331 209.574203,182.458084 213.586609,188.597153 
	C214.075928,189.419128 214.069122,190.097626 214.062317,190.776123 
z"/>
<path fill="#090909" opacity="1.000000" stroke="none" 
	d="
M91.996429,48.986645 
	C93.491745,48.986645 94.987053,48.986645 96.770203,48.986645 
	C96.770203,52.517151 96.770203,56.054913 96.770203,59.983307 
	C91.335449,59.983307 86.046989,60.021973 80.761406,59.916683 
	C80.291595,59.907330 79.840439,58.961239 79.937271,58.306068 
	C81.831871,57.465221 83.169823,56.768513 84.877533,55.992859 
	C86.018051,55.289871 86.788795,54.665829 87.819046,54.110168 
	C88.735458,53.636898 89.392357,53.095242 90.404495,52.465168 
	C91.141006,51.639175 91.522270,50.901604 91.929550,49.869904 
	C91.969177,49.379402 91.982803,49.183022 91.996429,48.986645 
z"/>
<path fill="#242424" opacity="1.000000" stroke="none" 
	d="
M76.119553,195.735809 
	C76.312866,194.616043 77.131828,193.687836 76.931252,193.119324 
	C74.658501,186.677368 75.550430,185.305847 82.106583,185.502060 
	C82.886032,185.525375 83.666771,185.505234 85.809738,185.505234 
	C84.824074,189.630859 84.277573,193.386948 82.809639,196.739594 
	C82.538078,197.359848 78.546364,196.351257 76.119553,195.735809 
z"/>
<path fill="#1F1F1F" opacity="1.000000" stroke="none" 
	d="
M133.502197,190.538574 
	C133.155914,195.869095 129.247253,192.868988 127.102310,193.541016 
	C126.550987,193.713745 123.834412,190.297318 124.207115,189.434174 
	C125.094719,187.378510 127.233406,185.863052 128.866714,184.129379 
	C129.255432,184.443436 129.644150,184.757492 130.032867,185.071533 
	C130.430801,183.460068 130.828751,181.848602 131.226685,180.237122 
	C131.843948,180.221954 132.461212,180.206772 133.078476,180.191589 
	C133.219879,183.494965 133.361282,186.798340 133.502197,190.538574 
z"/>
<path fill="#161616" opacity="1.000000" stroke="none" 
	d="
M29.316935,188.351074 
	C29.719208,190.052948 30.390970,191.483093 31.062735,192.913223 
	C30.869671,193.252533 30.676607,193.591843 30.483543,193.931152 
	C28.853924,192.953629 27.224306,191.976105 25.585566,190.993103 
	C25.021032,191.681564 24.097692,192.807617 23.174353,193.933655 
	C22.853281,193.726318 22.532211,193.518982 22.211140,193.311661 
	C22.211140,189.580383 22.211140,185.849106 22.211140,181.080460 
	C25.116653,181.854614 27.765621,182.280197 30.074776,183.403992 
	C30.556379,183.638367 29.782000,186.453537 29.316935,188.351074 
z"/>
<path fill="#141414" opacity="1.000000" stroke="none" 
	d="
M290.032654,186.767151 
	C292.296967,189.464172 290.518616,191.919937 288.480072,192.634659 
	C286.194855,193.435898 282.475006,193.535278 280.950012,192.176834 
	C279.374573,190.773453 278.667694,186.848221 279.486511,184.780975 
	C280.172241,183.049591 283.515594,181.901367 285.857025,181.489792 
	C287.059540,181.278442 288.644226,183.241287 289.605713,184.653992 
	C288.534454,185.128693 287.914124,185.198059 287.292816,185.208023 
	C285.734375,185.232971 283.876038,184.732742 282.726929,185.423264 
	C282.016479,185.850189 281.801453,188.467178 282.422424,189.384628 
	C283.134857,190.437195 285.017822,190.697464 286.392273,191.301926 
	C286.551117,190.968185 286.709930,190.634460 286.868774,190.300720 
	C286.217743,189.391617 285.566681,188.482498 284.662842,187.220367 
	C286.791779,187.040680 288.412201,186.903915 290.032654,186.767151 
z"/>
<path fill="#1D1D1D" opacity="1.000000" stroke="none" 
	d="
M214.093903,191.165100 
	C214.069122,190.097626 214.075928,189.419128 214.067139,188.487244 
	C215.711105,186.901489 217.370667,185.569153 219.030228,184.236801 
	C219.193878,184.494293 219.357529,184.751785 219.521179,185.009277 
	C220.158188,183.360260 220.795197,181.711227 221.432190,180.062210 
	C221.887802,180.193710 222.343399,180.325211 222.799011,180.456726 
	C222.799011,184.650742 222.799011,188.844772 222.799011,194.425156 
	C219.708176,193.402023 216.916840,192.478043 214.093903,191.165100 
z"/>
<path fill="#212121" opacity="1.000000" stroke="none" 
	d="
M249.494919,185.026962 
	C248.486389,188.027618 247.477875,191.028275 246.059296,195.248978 
	C244.203964,192.629608 243.383743,191.471619 242.478195,190.193161 
	C241.597534,191.371857 240.697998,192.575821 239.234390,194.534744 
	C237.484344,191.354904 236.050659,188.749893 234.616959,186.144867 
	C234.985489,185.778763 235.354034,185.412643 235.722565,185.046539 
	C237.057693,186.186172 238.392822,187.325821 239.734222,188.470810 
	C240.316269,187.650940 241.145615,186.482712 242.331863,184.811752 
	C243.531342,186.385757 244.459610,187.603867 245.176727,188.544891 
	C246.431015,187.463882 247.700699,186.369629 249.260910,185.176117 
	C249.551453,185.076859 249.494919,185.026962 249.494919,185.026962 
z"/>
<path fill="#202020" opacity="1.000000" stroke="none" 
	d="
M314.690582,188.241089 
	C313.845215,189.963730 312.999847,191.686386 311.494781,194.753326 
	C310.510223,191.746918 309.794434,189.561157 308.636597,186.025574 
	C307.277924,189.441391 306.380432,191.697769 305.482941,193.954147 
	C305.117828,193.853806 304.752747,193.753448 304.387634,193.653107 
	C303.885956,191.310043 303.146149,188.983047 302.986603,186.616928 
	C302.910889,185.493118 303.941986,184.294724 304.471680,183.130112 
	C305.872375,183.944519 307.273102,184.758911 308.734985,185.608871 
	C312.026428,181.729034 312.129822,181.754684 314.670166,187.857361 
	C314.636017,188.227753 314.690582,188.241089 314.690582,188.241089 
z"/>
<path fill="#191919" opacity="1.000000" stroke="none" 
	d="
M112.221024,190.939819 
	C115.278549,190.318573 114.513138,189.464661 112.676476,188.737732 
	C109.765663,187.585663 108.661385,185.456985 110.475708,182.947113 
	C112.286140,180.442627 114.827980,180.659134 117.909561,183.176041 
	C115.889801,183.781082 114.556427,184.180511 112.557831,184.779205 
	C113.734108,185.450775 114.337891,185.868988 114.997955,186.159210 
	C117.442169,187.233841 119.257263,189.258575 117.442444,191.455673 
	C116.242058,192.908890 113.309731,193.001053 111.103020,193.466629 
	C110.823013,193.525681 110.240707,192.151932 109.798447,191.441986 
	C110.470261,191.246765 111.142075,191.051559 112.221024,190.939819 
z"/>
<path fill="#212121" opacity="1.000000" stroke="none" 
	d="
M52.972111,190.671906 
	C52.717785,191.342377 52.586506,191.835312 52.371063,191.875351 
	C50.020256,192.312225 47.606567,193.099548 45.323448,192.830109 
	C44.547043,192.738495 43.163383,189.383102 43.693222,188.493881 
	C44.616356,186.944580 46.754086,185.339737 48.481922,185.222656 
	C51.445377,185.021835 53.372139,186.922592 52.972111,190.671906 
z"/>
<path fill="#212121" opacity="1.000000" stroke="none" 
	d="
M34.244190,186.014954 
	C36.903145,186.318359 39.386799,186.513702 41.462982,187.536316 
	C41.986286,187.794067 41.771858,191.679153 40.905029,192.179428 
	C39.183971,193.172668 36.383465,193.829498 34.730694,193.079376 
	C31.544968,191.633514 31.500978,188.838531 34.244190,186.014954 
z"/>
<path fill="#1E1E1E" opacity="1.000000" stroke="none" 
	d="
M232.193756,193.164825 
	C229.561432,192.699814 227.117950,192.351334 225.132278,191.207870 
	C224.636154,190.922180 225.109634,187.083115 226.023407,186.618103 
	C227.783981,185.722153 230.629654,185.227264 232.210999,186.078629 
	C235.293915,187.738495 234.963852,190.538712 232.193756,193.164825 
z"/>
<path fill="#262626" opacity="1.000000" stroke="none" 
	d="
M68.282471,189.575317 
	C67.767822,191.209549 67.293457,192.428833 66.819077,193.648102 
	C66.267525,192.472855 65.441620,191.343140 65.237038,190.110306 
	C65.005043,188.712311 65.329544,187.221970 65.444237,185.207062 
	C68.466179,186.565079 72.595634,182.867279 73.858841,188.017105 
	C74.294197,189.791962 73.364632,191.901611 73.058578,193.858322 
	C72.459450,193.767181 71.860321,193.676025 71.261185,193.584885 
	C71.140297,192.143188 71.136230,190.671875 70.785629,189.288391 
	C70.725929,189.052795 69.181335,189.193497 68.282471,189.575317 
z"/>
<path fill="#1F1F1F" opacity="1.000000" stroke="none" 
	d="
M314.614136,188.245361 
	C320.275146,183.609756 322.548431,183.859451 324.532776,189.691864 
	C322.682922,189.936996 320.896667,190.173691 319.110413,190.410400 
	C319.134644,190.716446 319.158875,191.022491 319.183075,191.328537 
	C320.712036,191.257874 322.240997,191.187210 323.769958,191.116547 
	C323.892822,191.617859 324.015656,192.119171 324.138489,192.620499 
	C322.365723,193.001968 320.030090,194.255219 318.952698,193.559647 
	C317.355591,192.528488 316.650360,190.115891 315.128021,188.266235 
	C314.690582,188.241089 314.636017,188.227753 314.614136,188.245361 
z"/>
<path fill="#2B2B2B" opacity="1.000000" stroke="none" 
	d="
M295.906799,188.292755 
	C296.234985,189.601257 296.559265,190.476059 296.883575,191.350861 
	C297.206696,191.296814 297.529846,191.242767 297.852966,191.188705 
	C298.292847,189.234818 298.732727,187.280914 299.172577,185.327026 
	C299.747406,185.298111 300.322235,185.269196 300.897064,185.240295 
	C301.015717,187.424515 301.955109,190.118835 301.008911,191.641266 
	C300.160034,193.007141 295.935699,194.128571 295.464600,193.541367 
	C293.801880,191.468811 293.111664,188.616028 292.052643,186.059113 
	C292.744232,185.728424 293.435791,185.397720 294.127380,185.067017 
	C294.719208,185.997711 295.311066,186.928391 295.906799,188.292755 
z"/>
<path fill="#282828" opacity="1.000000" stroke="none" 
	d="
M140.345612,193.188293 
	C140.092758,190.529129 140.092758,188.217636 140.092758,184.420807 
	C143.315948,185.669891 146.334061,186.250549 148.454895,187.950577 
	C149.306107,188.632874 148.185516,191.775085 147.962387,193.797653 
	C147.390625,193.739990 146.818863,193.682327 146.247101,193.624664 
	C145.871124,191.695618 145.495163,189.766571 145.138260,187.935364 
	C140.867920,188.154434 145.594849,194.277954 140.345612,193.188293 
z"/>
<path fill="#1B1B1B" opacity="1.000000" stroke="none" 
	d="
M58.863441,187.827393 
	C58.093666,189.871902 57.323891,191.916412 56.554119,193.960922 
	C56.002201,193.835495 55.450283,193.710068 54.898365,193.584641 
	C54.898365,190.350632 54.504154,187.045059 55.072433,183.914200 
	C55.337990,182.451218 57.371307,180.452576 58.775379,180.302170 
	C60.086937,180.161682 61.626076,182.145813 62.670647,183.584961 
	C61.260910,183.591293 60.245575,183.207504 58.611851,182.589951 
	C58.704624,184.521301 58.784031,186.174347 58.863441,187.827393 
z"/>
<path fill="#202020" opacity="1.000000" stroke="none" 
	d="
M250.067261,184.994370 
	C249.494919,185.026962 249.551453,185.076859 249.579163,185.078186 
	C251.920609,185.218079 254.234360,185.356659 256.556732,185.495758 
	C253.697952,192.300217 252.792450,193.558746 252.028961,193.321854 
	C251.514267,190.224884 251.076935,187.593323 250.067261,184.994370 
z"/>
<path fill="#929292" opacity="1.000000" stroke="none" 
	d="
M59.217934,188.041382 
	C58.784031,186.174347 58.704624,184.521301 58.611851,182.589951 
	C60.245575,183.207504 61.260910,183.591293 62.600212,183.953766 
	C63.244305,186.188889 63.828094,188.451797 63.772854,190.699005 
	C63.745407,191.815735 62.545105,192.903625 61.875389,194.004562 
	C61.220619,192.896072 60.464027,191.832428 59.948708,190.662521 
	C59.632343,189.944229 59.685307,189.063263 59.217934,188.041382 
z"/>
<path fill="#202020" opacity="1.000000" stroke="none" 
	d="
M335.103455,193.813660 
	C334.567566,191.234360 334.043182,188.672241 334.530304,186.319534 
	C334.689484,185.550522 337.480774,185.326462 338.322723,185.075455 
	C338.919983,186.987839 339.264923,188.160461 339.651855,189.319077 
	C340.983185,193.305420 338.498749,193.833466 335.103455,193.813660 
z"/>
<path fill="#E1E1E1" opacity="1.000000" stroke="none" 
	d="
M290.026306,186.463959 
	C288.412201,186.903915 286.791779,187.040680 284.662842,187.220367 
	C285.566681,188.482498 286.217743,189.391617 286.868774,190.300720 
	C286.709930,190.634460 286.551117,190.968185 286.392273,191.301926 
	C285.017822,190.697464 283.134857,190.437195 282.422424,189.384628 
	C281.801453,188.467178 282.016479,185.850189 282.726929,185.423264 
	C283.876038,184.732742 285.734375,185.232971 287.292816,185.208023 
	C287.914124,185.198059 288.534454,185.128693 289.566193,185.017593 
	C289.991425,185.352783 290.005707,185.756775 290.026306,186.463959 
z"/>
<path fill="#282828" opacity="1.000000" stroke="none" 
	d="
M326.414490,193.104584 
	C326.170227,190.378937 326.170227,187.980560 326.170227,185.274765 
	C328.388611,185.588943 330.110657,185.832825 331.444427,186.021713 
	C330.656555,188.086182 330.020020,190.187546 329.031830,192.108002 
	C328.686707,192.778717 327.474792,193.003448 326.414490,193.104584 
z"/>
<path fill="#B82A46" opacity="1.000000" stroke="none" 
	d="
M172.743896,185.989838 
	C173.562332,187.606430 174.228760,189.136185 174.225525,190.664536 
	C174.224731,191.043350 171.970444,191.853058 170.907257,191.650360 
	C170.116730,191.499680 168.844482,189.565155 169.054642,189.236938 
	C169.878235,187.950623 171.204865,186.986389 172.743896,185.989838 
z"/>
<path fill="#B72845" opacity="1.000000" stroke="none" 
	d="
M96.701981,185.996933 
	C97.500084,187.609970 98.169479,189.141129 98.125839,190.651718 
	C98.113922,191.064407 95.876228,191.852753 94.817314,191.649414 
	C94.037308,191.499634 92.786575,189.550858 93.004494,189.211029 
	C93.825470,187.930801 95.161552,186.980911 96.701981,185.996933 
z"/>
<path fill="#B62341" opacity="1.000000" stroke="none" 
	d="
M268.756653,186.225555 
	C268.894928,188.200302 268.679535,189.978897 268.464142,191.757477 
	C267.069122,190.975937 264.679260,190.394867 264.473480,189.373672 
	C263.945496,186.753738 265.716217,185.557892 268.756653,186.225555 
z"/>
<path fill="#282828" opacity="1.000000" stroke="none" 
	d="
M90.049248,52.553589 
	C89.392357,53.095242 88.735458,53.636898 87.401291,53.827908 
	C85.985275,54.342110 85.246521,55.206955 84.507774,56.071800 
	C83.169823,56.768513 81.831871,57.465221 80.239426,58.076927 
	C82.375130,55.685089 84.765327,53.378254 87.855095,51.018929 
	C89.047546,50.980179 89.540436,50.993927 89.844162,51.396141 
	C89.786423,52.040936 89.917831,52.297260 90.049248,52.553589 
z"/>
<path fill="#2A2A2A" opacity="1.000000" stroke="none" 
	d="
M135.127487,190.750412 
	C135.401978,188.585419 135.677567,186.839722 135.953171,185.094025 
	C136.553879,185.184631 137.154602,185.275238 137.755310,185.365845 
	C137.755310,188.025452 137.755310,190.685059 137.755310,193.344666 
	C137.487762,193.528336 137.220215,193.712021 136.952682,193.895706 
	C136.344650,192.987045 135.736618,192.078384 135.127487,190.750412 
z"/>
<path fill="#373737" opacity="1.000000" stroke="none" 
	d="
M179.044067,57.790260 
	C178.464035,57.922302 177.883987,58.054344 177.036835,58.115494 
	C176.023071,57.798622 175.276443,57.552643 174.465378,57.285431 
	C177.042801,55.793190 179.641953,54.288364 182.707703,53.071091 
	C183.117157,53.572933 183.060028,53.787228 182.735367,54.083366 
	C182.314941,54.474224 182.162033,54.783237 182.009125,55.092251 
	C182.009125,55.092251 182.013809,55.018295 181.773651,54.968269 
	C181.365036,55.002228 181.196609,55.086220 180.720306,55.267624 
	C179.956299,56.173443 179.500183,56.981850 179.044067,57.790260 
z"/>
<path fill="#353535" opacity="1.000000" stroke="none" 
	d="
M270.018372,50.038467 
	C270.012115,49.858601 270.005890,49.678734 270.005737,49.228981 
	C271.556091,49.606827 273.100342,50.254566 274.865662,51.137630 
	C275.075439,51.656628 275.064087,51.940304 274.745239,52.583996 
	C274.260529,52.967182 274.083344,52.990353 273.906128,53.013523 
	C273.906128,53.013523 274.005219,52.992416 273.903137,52.726868 
	C273.221313,52.125278 272.641571,51.789234 271.897064,51.263596 
	C271.161011,50.728821 270.589691,50.383644 270.018372,50.038467 
z"/>
<path fill="#373737" opacity="1.000000" stroke="none" 
	d="
M109.449715,37.028503 
	C109.781578,37.447754 110.113441,37.867001 110.477081,38.561897 
	C109.541527,39.455482 108.574203,40.073418 107.156387,40.558914 
	C106.464859,40.198944 106.186790,40.033730 105.962105,39.712193 
	C106.052528,39.493549 106.053139,39.020344 106.053139,39.020344 
	C106.053139,39.020344 105.997414,39.001598 106.336014,39.013214 
	C106.805069,38.688103 106.935516,38.351379 107.065964,38.014656 
	C107.065964,38.014652 107.000717,38.000023 107.348793,38.176994 
	C108.281151,37.912144 108.865433,37.470322 109.449715,37.028503 
z"/>
<path fill="#AFAFAF" opacity="1.000000" stroke="none" 
	d="
M183.002884,54.001518 
	C183.060028,53.787228 183.117157,53.572933 183.083176,53.038696 
	C183.786438,52.374172 184.580811,52.029598 185.654099,51.820244 
	C185.703033,52.677498 185.473068,53.399529 184.515182,54.086838 
	C183.525818,54.035255 183.264343,54.018387 183.002884,54.001518 
z"/>
<path fill="#373737" opacity="1.000000" stroke="none" 
	d="
M90.033318,51.007675 
	C89.540436,50.993927 89.047546,50.980179 88.185638,50.942276 
	C89.002419,50.148617 90.188217,49.379108 91.685226,48.798122 
	C91.982803,49.183022 91.969177,49.379402 91.688538,49.966499 
	C90.958786,50.574039 90.496056,50.790859 90.033318,51.007675 
z"/>
<path fill="#191919" opacity="1.000000" stroke="none" 
	d="
M102.183838,42.789337 
	C101.879150,42.581841 101.984695,42.576572 102.195450,42.283089 
	C103.189934,41.580372 103.973663,41.171135 104.992691,40.974472 
	C105.390511,41.322243 105.553032,41.457443 105.715553,41.592644 
	C104.639877,42.060707 103.564209,42.528770 102.183838,42.789337 
z"/>
<path fill="#B31A38" opacity="1.000000" stroke="none" 
	d="
M35.307648,93.866508 
	C35.557705,93.308456 36.115391,92.711136 37.018127,92.122528 
	C36.780544,92.696579 36.197910,93.261909 35.307648,93.866508 
z"/>
<path fill="#191919" opacity="1.000000" stroke="none" 
	d="
M105.871681,39.930836 
	C106.186790,40.033730 106.464859,40.198944 106.830315,40.636383 
	C106.717125,41.069607 106.453468,41.256096 105.939651,41.499199 
	C105.553032,41.457443 105.390511,41.322243 105.051537,40.786240 
	C104.875076,40.385441 105.044380,40.029194 105.251511,40.007179 
	C105.458641,39.985165 105.871681,39.930836 105.871681,39.930836 
z"/>
<path fill="#B31A38" opacity="1.000000" stroke="none" 
	d="
M40.901276,80.740417 
	C40.471115,80.833946 40.352795,80.583633 40.629250,80.133438 
	C40.822750,80.186249 40.885777,80.340576 40.901276,80.740417 
z"/>
<path fill="#F9EFF1" opacity="1.000000" stroke="none" 
	d="
M19.055206,88.822037 
	C19.055206,85.457321 19.055206,82.092621 19.055206,78.046776 
	C22.107208,78.378235 24.605354,78.649536 27.636391,79.260956 
	C28.716579,80.219093 29.263880,80.837120 29.811180,81.455147 
	C30.213995,85.393227 29.123800,88.318130 24.100918,89.022705 
	C23.498974,89.062668 23.019163,89.188614 23.019163,89.188614 
	C22.562689,89.142265 22.106215,89.095917 20.995544,89.039093 
	C19.912632,88.959755 19.483919,88.890892 19.055206,88.822037 
z"/>
<path fill="#B31A38" opacity="1.000000" stroke="none" 
	d="
M29.925022,81.154068 
	C29.263880,80.837120 28.716579,80.219093 28.025375,79.323334 
	C28.834486,79.368889 31.994307,77.057999 29.925022,81.154068 
z"/>
<path fill="#B31A38" opacity="1.000000" stroke="none" 
	d="
M19.151468,89.068260 
	C19.483919,88.890892 19.912632,88.959755 20.656952,89.110001 
	C20.397617,89.232422 19.822674,89.273453 19.151468,89.068260 
z"/>
<path fill="#B31A38" opacity="1.000000" stroke="none" 
	d="
M23.113550,89.327026 
	C23.019163,89.188614 23.498974,89.062668 23.741051,89.116692 
	C23.983128,89.170715 23.656443,89.529640 23.656443,89.529640 
	C23.656443,89.529640 23.207937,89.465439 23.113550,89.327026 
z"/>
<path fill="#FCF9F9" opacity="1.000000" stroke="none" 
	d="
M90.049393,80.481812 
	C93.807503,76.255211 97.687096,78.565163 100.981163,80.398987 
	C106.233589,83.323036 108.123695,93.958038 105.263542,101.367043 
	C103.114960,106.932785 98.067352,109.255913 90.042404,108.069054 
	C90.042404,99.077751 90.042404,90.004082 90.049393,80.481812 
z"/>
<path fill="#FDFAFA" opacity="1.000000" stroke="none" 
	d="
M282.266632,100.347252 
	C280.558563,94.665001 280.625397,89.437721 283.174805,84.432083 
	C285.135132,80.583076 288.283905,78.234634 292.690552,78.223763 
	C297.095459,78.212883 300.749237,80.374245 302.077637,84.432991 
	C303.381500,88.417000 304.027252,92.849281 303.838470,97.034149 
	C303.557770,103.256622 299.519928,107.492058 294.370758,108.349274 
	C289.145752,109.219109 285.611694,106.964417 282.266632,100.347252 
z"/>
<path fill="#FCF7F7" opacity="1.000000" stroke="none" 
	d="
M344.653442,79.101288 
	C348.632172,81.583443 349.140106,85.466179 347.194733,88.313103 
	C345.586853,90.666214 341.883331,91.587357 338.016296,93.755203 
	C338.016296,87.575821 338.016296,83.239357 338.016296,78.289307 
	C340.183441,78.528435 342.226562,78.753876 344.653442,79.101288 
z"/>
<path fill="#F7F8F9" opacity="1.000000" stroke="none" 
	d="
M237.943665,141.995575 
	C239.098114,146.140335 240.651245,150.051025 240.601685,153.941315 
	C240.549835,158.010956 237.407806,160.322266 233.190521,160.462830 
	C228.859467,160.607193 225.883972,158.774170 224.820129,154.346283 
	C223.768066,149.967361 223.614548,145.585220 227.103195,142.292343 
	C230.221481,139.349030 233.997818,139.504211 237.943665,141.995575 
z"/>
<path fill="#F2F4F5" opacity="1.000000" stroke="none" 
	d="
M266.341797,140.517654 
	C269.499207,141.101089 271.781860,142.473129 270.779175,145.528503 
	C269.256134,150.169556 265.059784,148.862686 261.274994,149.018127 
	C261.274994,146.316238 261.274994,143.750824 261.274994,140.648041 
	C262.773834,140.582291 264.357056,140.512833 266.341797,140.517654 
z"/>
<path fill="#EEF1F3" opacity="1.000000" stroke="none" 
	d="
M186.545349,141.429413 
	C187.039581,143.475388 187.894974,146.508621 187.258347,146.863251 
	C184.717560,148.278488 181.712570,148.860321 178.340576,149.919907 
	C178.340576,146.286041 178.340576,143.857056 178.340576,140.402908 
	C180.959961,140.663071 183.590363,140.924347 186.545349,141.429413 
z"/>
<path fill="#CEB9BD" opacity="1.000000" stroke="none" 
	d="
M105.044380,40.029194 
	C105.044380,40.029194 104.875076,40.385441 104.816231,40.573669 
	C103.973663,41.171135 103.189934,41.580372 102.174538,42.234573 
	C102.199821,41.634274 102.456779,40.789013 103.478729,39.954292 
	C104.510605,39.986282 104.777496,40.007736 105.044380,40.029194 
z"/>
<path fill="#E3D8D8" opacity="1.000000" stroke="none" 
	d="
M109.057503,36.991039 
	C108.865433,37.470322 108.281151,37.912144 107.345612,38.210274 
	C107.551331,37.695580 108.108315,37.324577 109.057503,36.991039 
z"/>
<path fill="#E3D8D8" opacity="1.000000" stroke="none" 
	d="
M105.251511,40.007179 
	C104.777496,40.007736 104.510605,39.986282 103.842209,39.954983 
	C104.094032,39.455986 104.747368,38.966835 105.726921,38.749016 
	C106.053139,39.020344 106.052528,39.493549 105.962105,39.712193 
	C105.871681,39.930836 105.458641,39.985165 105.251511,40.007179 
z"/>
<path fill="#E3D8D8" opacity="1.000000" stroke="none" 
	d="
M106.686813,37.970627 
	C106.935516,38.351379 106.805069,38.688103 106.339371,39.042419 
	C106.105301,38.682205 106.206474,38.304401 106.686813,37.970627 
z"/>
<path fill="#C1C1C1" opacity="1.000000" stroke="none" 
	d="
M269.872620,50.360847 
	C270.589691,50.383644 271.161011,50.728821 271.910461,51.607788 
	C272.069611,52.370148 272.050629,52.598717 272.031647,52.827286 
	C271.263397,52.112598 270.495117,51.397915 269.872620,50.360847 
z"/>
<path fill="#E1E1E1" opacity="1.000000" stroke="none" 
	d="
M272.377686,53.046848 
	C272.050629,52.598717 272.069611,52.370148 272.075195,51.797386 
	C272.641571,51.789234 273.221313,52.125278 273.915039,52.776104 
	C273.593933,53.149395 273.158813,53.207905 272.377686,53.046848 
z"/>
<path fill="#E1E1E1" opacity="1.000000" stroke="none" 
	d="
M273.801941,53.324425 
	C274.083344,52.990353 274.260529,52.967182 274.698181,53.007244 
	C274.538361,53.258759 274.118042,53.447044 273.801941,53.324425 
z"/>
<path fill="#C1C1C1" opacity="1.000000" stroke="none" 
	d="
M179.294464,57.767723 
	C179.500183,56.981850 179.956299,56.173443 180.744705,55.606686 
	C181.089325,56.074627 181.101654,56.300915 181.113983,56.527199 
	C180.590942,56.933193 180.067902,57.339191 179.294464,57.767723 
z"/>
<path fill="#D5D5D5" opacity="1.000000" stroke="none" 
	d="
M182.735367,54.083366 
	C183.264343,54.018387 183.525818,54.035255 184.180252,54.052601 
	C183.942932,54.569077 183.312653,55.085075 182.345749,55.346664 
	C182.162033,54.783237 182.314941,54.474224 182.735367,54.083366 
z"/>
<path fill="#D5D5D5" opacity="1.000000" stroke="none" 
	d="
M181.452026,56.359062 
	C181.101654,56.300915 181.089325,56.074627 181.052582,55.509274 
	C181.196609,55.086220 181.365036,55.002228 181.810181,54.974327 
	C181.987961,55.417252 181.889023,55.804085 181.452026,56.359062 
z"/>
<path fill="#AFAFAF" opacity="1.000000" stroke="none" 
	d="
M89.844162,51.396145 
	C90.496056,50.790859 90.958786,50.574039 91.662529,50.260628 
	C91.522270,50.901604 91.141006,51.639175 90.404495,52.465164 
	C89.917831,52.297260 89.786423,52.040936 89.844162,51.396145 
z"/>
<path fill="#B3B3B3" opacity="1.000000" stroke="none" 
	d="
M84.877533,55.992859 
	C85.246521,55.206955 85.985275,54.342110 87.141785,53.759521 
	C86.788795,54.665829 86.018051,55.289871 84.877533,55.992859 
z"/>
</svg>